<svg version="1.1" xmlns="http://www.w3.org/2000/svg" viewBox="0 0 74.22203191069593 157.69415139869744" width="148.44406382139186" height="315.3883027973949"><g transform="translate(37.74943091029627 10) rotate(0 -0.6384149549483027 42.26001783451599)" stroke="none"><path d="M0 0 C0 0, 0 0, 0 0 M0 0 C0 0, 0 0, 0 0 M-0.26 6.4 C0.47 4.64, 2.2 4.06, 3.02 2.62 M-0.26 6.4 C1.2 4.8, 2.38 3.82, 3.02 2.62 M-24.14 39.97 C-23.58 39.39, -22.65 38.55, -22.17 37.7 M-24.14 39.97 C-23.55 39.38, -23.15 38.81, -22.17 37.7 M-4.46 17.32 C-0.1 13.03, 1.5 10.67, 4.07 7.51 M-4.46 17.32 C-2.12 13.87, 1.41 10.23, 4.07 7.51 M-17.84 38.82 C-17.09 37.71, -15.76 36.55, -15.22 35.8 M-17.84 38.82 C-16.82 37.81, -15.81 36.44, -15.22 35.8 M-12.59 32.78 C-7.01 26.32, -4.33 24.97, 5.12 12.4 M-12.59 32.78 C-5.48 25.12, 0.13 18.57, 5.12 12.4 M-14.82 41.44 C-5.36 33.56, -1.12 21.89, 6.83 16.53 M-14.82 41.44 C-8.14 33.15, -0.3 25.63, 6.83 16.53 M-11.8 44.06 C-7.54 40.52, -1.36 33.49, 8.53 20.67 M-11.8 44.06 C-5.44 36.31, 0.47 29.76, 8.53 20.67 M-9.44 47.44 C-2.69 42.26, 2.06 33.93, 10.24 24.8 M-9.44 47.44 C-2.45 38.83, 6.92 28.92, 10.24 24.8 M-6.42 50.07 C-2.7 47.19, 0.5 40.22, 11.95 28.94 M-6.42 50.07 C-2.05 43.77, 3.09 37.41, 11.95 28.94 M-4.06 53.45 C4.15 44.58, 9.79 37.45, 14.31 32.31 M-4.06 53.45 C2.08 48.07, 7.59 40.8, 14.31 32.31 M-1.7 56.83 C2.88 50.17, 7.23 45.38, 19.3 32.67 M-1.7 56.83 C1.46 51.17, 6.05 46.07, 19.3 32.67 M0.67 60.2 C6.79 54.82, 9.27 47.7, 21 36.81 M0.67 60.2 C8.47 50.32, 16.07 42.37, 21 36.81 M21 36.81 C22.46 35.85, 22.95 34.58, 24.94 32.28 M21 36.81 C22.73 34.88, 23.74 33.12, 24.94 32.28 M3.03 63.58 C5.92 57.77, 8.62 56.94, 15.49 49.24 M3.03 63.58 C8.42 57.56, 13.27 52.33, 15.49 49.24 M5.39 66.96 C9.33 63.22, 12.6 60.12, 13.92 57.15 M5.39 66.96 C8.41 64.15, 10.35 60.64, 13.92 57.15 M6.44 71.85 C8.13 69.67, 11.02 67.37, 11.69 65.81 M6.44 71.85 C8.04 70.3, 8.81 69.24, 11.69 65.81 M8.15 75.98 C9.14 75.31, 9.32 74.3, 11.43 72.21 M8.15 75.98 C9.21 75.07, 10.1 73.57, 11.43 72.21 M9.2 80.87 C9.73 80.63, 9.97 80.15, 11.17 78.61 M9.2 80.87 C9.67 80.31, 10.13 79.66, 11.17 78.61 M10.15 84.36 C10.15 84.36, 10.15 84.36, 10.15 84.36 M10.15 84.36 C10.15 84.36, 10.15 84.36, 10.15 84.36 M10.51 79.37 C9.57 78.79, 8.79 77.61, 8.24 77.4 M10.51 79.37 C9.77 78.75, 8.75 77.83, 8.24 77.4 M10.87 74.38 C9.98 73.85, 8.79 72.13, 5.58 69.79 M10.87 74.38 C9.49 73.02, 7.83 71.32, 5.58 69.79 M-28.38 40.27 C-28.38 40.27, -28.38 40.27, -28.38 40.27 M-28.38 40.27 C-28.38 40.27, -28.38 40.27, -28.38 40.27 M11.23 69.39 C7.89 65.45, 4.76 64.05, 2.17 61.52 M11.23 69.39 C7.67 66.47, 4.39 62.87, 2.17 61.52 M-23.49 39.22 C-23.83 38.59, -24.78 37.99, -25.75 37.25 M-23.49 39.22 C-24.32 38.59, -25 38.06, -25.75 37.25 M11.59 64.41 C7.59 59.35, 1.49 56.12, -14.83 41.45 M11.59 64.41 C5.62 59.79, -1.8 52.69, -14.83 41.45 M-19.36 37.51 C-19.36 37.51, -19.36 37.51, -19.36 37.51 M-19.36 37.51 C-19.36 37.51, -19.36 37.51, -19.36 37.51 M12.7 60.08 C4.45 51.02, -8.4 41.46, -15.98 35.15 M12.7 60.08 C3.63 52.71, -5.03 45.26, -15.98 35.15 M13.82 55.75 C4.58 49.16, -6.24 40.07, -12.6 32.78 M13.82 55.75 C4.73 46.95, -5.16 40.49, -12.6 32.78 M14.93 51.41 C3.96 41.93, -5.1 35.67, -10.73 29.11 M14.93 51.41 C4.92 42.39, -3.61 34.29, -10.73 29.11 M16.05 47.08 C9.81 42.98, 1.99 35.29, -8.86 25.43 M16.05 47.08 C9.9 40.66, 2.17 33.9, -8.86 25.43 M17.92 43.41 C12.27 36.86, 5.72 32.16, -6.99 21.76 M17.92 43.41 C8.74 35.06, -2.2 26.57, -6.99 21.76 M19.79 39.73 C11.36 30.7, -0.8 24, -4.36 18.74 M19.79 39.73 C13.92 34.93, 6.71 28.5, -4.36 18.74 M21.66 36.06 C20.92 35.53, 19.71 34.47, 17.13 32.12 M21.66 36.06 C20.64 34.86, 19.17 33.76, 17.13 32.12 M10.33 26.22 C5 23.14, 0.76 17.29, -2.5 15.06 M10.33 26.22 C6.27 21.54, 0.67 19.25, -2.5 15.06 M24.28 33.04 C23.73 32.62, 23.12 32.35, 22.77 31.73 M24.28 33.04 C23.64 32.62, 23.02 32.11, 22.77 31.73 M6.92 17.95 C3.1 15.12, 2.01 12.65, -0.63 11.39 M6.92 17.95 C5.75 16.74, 3.89 14.88, -0.63 11.39 M5.02 11 C3.61 9.72, 2.2 8.81, -0.27 6.4 M5.02 11 C3.89 10.19, 2.62 9.17, -0.27 6.4 M3.87 4.7 C3 4.12, 2.2 3.34, 0.09 1.42 M3.87 4.7 C2.37 3.64, 1.07 2.15, 0.09 1.42" stroke="#ffec99" stroke-width="0.5" fill="none"></path><path fill="#1e1e1e" d="M 2.54,0 Q 2.54,0 2.59,0.88 2.63,1.77 2.70,2.85 2.78,3.92 2.87,5.05 2.97,6.18 2.98,7.64 2.98,9.10 2.49,10.77 1.99,12.44 1.32,14.04 0.66,15.63 -0.04,17.02 -0.74,18.40 -1.27,19.59 -1.81,20.78 -2.40,22.00 -3.00,23.21 -3.77,24.70 -4.54,26.20 -5.28,27.47 -6.02,28.74 -6.62,29.72 -7.22,30.69 -7.80,31.58 -8.37,32.48 -9.20,33.62 -10.03,34.75 -10.77,35.74 -11.52,36.74 -12.32,37.51 -13.12,38.28 -14.06,38.98 -15.00,39.67 -15.98,40.27 -16.96,40.86 -18.17,41.58 -19.38,42.30 -20.41,42.72 -21.45,43.14 -23.02,43.53 -24.59,43.92 -26.66,43.83 -28.73,43.73 -29.74,42.77 -30.75,41.81 -30.98,40.54 -31.20,39.28 -30.88,38.24 -30.56,37.20 -29.32,35.78 -28.08,34.36 -26.48,33.89 -24.88,33.43 -23.72,33.59 -22.56,33.76 -21.27,34.00 -19.99,34.25 -18.79,34.46 -17.59,34.68 -16.31,35.47 -15.04,36.26 -14.12,37.21 -13.21,38.16 -12.42,38.96 -11.62,39.76 -10.52,40.72 -9.42,41.68 -8.53,42.55 -7.63,43.41 -6.58,44.47 -5.54,45.53 -4.49,46.64 -3.45,47.75 -2.45,48.90 -1.46,50.06 -0.51,51.24 0.44,52.42 1.43,53.86 2.41,55.30 3.25,56.47 4.09,57.64 4.98,59.09 5.87,60.55 6.60,62.01 7.32,63.47 7.90,64.77 8.47,66.08 8.91,67.27 9.35,68.47 9.74,69.56 10.12,70.65 10.46,71.73 10.80,72.81 11.18,74.21 11.56,75.62 11.83,76.83 12.09,78.05 12.39,79.32 12.69,80.59 13.02,81.75 13.34,82.91 10.92,82.46 8.50,82.00 7.89,81.00 7.29,80.00 7.28,78.84 7.28,77.68 7.26,76.57 7.25,75.46 7.24,74.32 7.23,73.19 7.24,71.99 7.25,70.80 7.28,69.31 7.30,67.83 7.48,66.10 7.65,64.37 7.93,62.86 8.20,61.34 8.53,59.92 8.87,58.49 9.25,56.85 9.63,55.22 10.20,53.25 10.77,51.28 11.10,50.26 11.43,49.24 11.84,48.14 12.24,47.05 12.66,46.01 13.08,44.97 13.50,43.99 13.92,43.01 14.73,41.28 15.55,39.56 16.34,37.99 17.13,36.42 17.94,35.08 18.76,33.73 19.47,32.77 20.18,31.82 21.00,30.99 21.81,30.15 23.17,29.26 24.54,28.37 25.30,28.24 26.07,28.12 26.49,28.13 26.91,28.15 27.31,28.26 27.71,28.38 28.08,28.59 28.44,28.80 28.74,29.09 29.05,29.38 29.27,29.73 29.50,30.09 29.63,30.48 29.77,30.88 29.80,31.30 29.83,31.72 29.77,32.13 29.70,32.54 29.54,32.93 29.38,33.32 29.12,33.65 28.87,33.99 28.55,34.25 28.22,34.52 27.85,34.70 27.47,34.88 27.06,34.97 26.65,35.05 25.26,35.65 23.87,36.25 22.66,36.37 21.44,36.49 20.11,36.52 18.78,36.55 17.13,36.45 15.47,36.35 13.75,35.67 12.02,34.98 10.71,33.93 9.40,32.88 8.52,31.63 7.64,30.38 7.16,29.40 6.68,28.43 6.14,27.36 5.59,26.30 5.13,25.17 4.67,24.05 4.26,22.93 3.85,21.82 3.42,20.59 3.00,19.36 2.47,17.86 1.94,16.36 1.53,15.14 1.13,13.93 0.75,12.63 0.38,11.34 0.06,10.15 -0.24,8.96 -0.37,7.72 -0.50,6.49 -0.53,5.38 -0.56,4.27 -0.95,3.80 -1.34,3.33 -1.83,3.03 -2.33,2.72 -2.71,2.28 -3.08,1.83 -3.29,1.29 -3.51,0.75 -3.54,0.17 -3.56,-0.40 -3.41,-0.96 -3.25,-1.52 -2.92,-2.00 -2.59,-2.48 -2.13,-2.83 -1.66,-3.18 -1.11,-3.36 -0.56,-3.54 0.01,-3.54 0.59,-3.54 1.14,-3.35 1.69,-3.16 2.15,-2.81 2.61,-2.45 2.94,-1.97 3.26,-1.49 3.41,-0.93 3.57,-0.37 3.53,0.20 3.50,0.78 3.28,1.32 3.07,1.86 2.69,2.30 2.31,2.74 1.81,3.04 1.31,3.34 0.74,3.46 0.17,3.58 -0.39,3.52 -0.97,3.45 -1.50,3.21 -2.02,2.96 -2.44,2.56 -2.86,2.16 -3.13,1.64 -3.40,1.13 -3.50,0.55 -3.59,-0.01 -3.49,-0.58 -3.39,-1.16 -3.12,-1.67 -2.85,-2.18 -2.42,-2.58 -2.00,-2.98 -1.47,-3.22 -0.94,-3.46 -0.36,-3.52 0.20,-3.58 0.77,-3.45 1.34,-3.33 1.34,-3.33 1.34,-3.33 3.62,-1.36 5.90,0.59 6.25,1.63 6.60,2.67 6.64,4.05 6.68,5.44 6.80,6.81 6.93,8.19 7.27,9.34 7.61,10.48 7.99,11.66 8.37,12.85 8.75,13.91 9.12,14.97 9.50,16.04 9.87,17.10 10.25,18.16 10.63,19.22 11.05,20.32 11.47,21.43 11.97,22.60 12.47,23.76 13.04,24.93 13.60,26.10 14.22,27.12 14.84,28.14 15.98,28.69 17.13,29.24 18.26,29.26 19.39,29.28 20.55,29.30 21.71,29.32 22.86,29.01 24.02,28.70 25.04,28.41 26.07,28.12 26.49,28.13 26.91,28.15 27.31,28.26 27.71,28.38 28.08,28.59 28.44,28.80 28.74,29.09 29.05,29.38 29.27,29.73 29.50,30.08 29.63,30.48 29.77,30.88 29.80,31.30 29.83,31.72 29.77,32.13 29.70,32.54 29.54,32.93 29.38,33.32 29.12,33.65 28.87,33.99 28.55,34.25 28.22,34.52 27.85,34.70 27.47,34.88 27.06,34.97 26.65,35.05 26.89,34.77 27.13,34.48 26.28,35.20 25.43,35.91 24.50,37.11 23.57,38.30 22.85,39.56 22.14,40.81 21.39,42.37 20.63,43.92 19.91,45.60 19.19,47.29 18.54,49.21 17.88,51.14 17.38,53.08 16.87,55.02 16.50,56.72 16.13,58.42 15.80,59.96 15.48,61.50 15.23,62.69 14.99,63.88 14.83,65.21 14.67,66.54 14.65,67.94 14.63,69.34 14.65,70.73 14.67,72.12 14.67,73.34 14.67,74.56 14.65,75.64 14.64,76.71 14.63,77.93 14.61,79.15 14.59,80.50 14.57,81.85 14.44,83.07 14.31,84.28 13.29,85.53 12.28,86.77 10.17,86.96 8.07,87.15 7.34,86.27 6.62,85.39 6.24,84.04 5.86,82.68 5.58,81.54 5.30,80.41 5.03,79.00 4.76,77.59 4.38,76.12 4.01,74.66 3.59,73.28 3.17,71.90 2.79,70.81 2.41,69.72 2.02,68.69 1.63,67.67 1.07,66.47 0.50,65.28 -0.17,64.08 -0.84,62.89 -1.67,61.70 -2.50,60.52 -3.36,59.29 -4.22,58.06 -5.11,56.95 -6.00,55.85 -6.92,54.79 -7.84,53.74 -8.77,52.76 -9.70,51.77 -10.72,50.79 -11.74,49.81 -12.76,48.88 -13.77,47.96 -14.74,47.11 -15.71,46.25 -16.65,45.37 -17.59,44.48 -18.29,43.63 -18.99,42.77 -20.35,42.22 -21.72,41.67 -23.06,41.24 -24.40,40.81 -24.38,39.71 -24.36,38.61 -25.24,37.68 -26.13,36.76 -24.97,36.49 -23.82,36.22 -22.76,35.75 -21.69,35.28 -20.54,34.57 -19.38,33.85 -18.30,33.16 -17.22,32.47 -16.43,31.48 -15.64,30.48 -14.87,29.48 -14.09,28.47 -13.28,27.29 -12.48,26.10 -11.65,24.77 -10.82,23.44 -10.12,22.33 -9.42,21.21 -8.88,20.18 -8.35,19.15 -7.77,17.98 -7.20,16.80 -6.50,15.43 -5.81,14.05 -5.18,12.88 -4.55,11.70 -4.04,10.35 -3.52,9.01 -3.24,7.59 -2.97,6.18 -2.87,5.05 -2.78,3.92 -2.70,2.85 -2.63,1.77 -2.59,0.88 -2.54,0 -2.51,-0.30 -2.47,-0.60 -2.36,-0.89 -2.25,-1.18 -2.08,-1.43 -1.90,-1.68 -1.67,-1.89 -1.44,-2.09 -1.17,-2.23 -0.90,-2.38 -0.60,-2.45 -0.30,-2.52 0.00,-2.52 0.30,-2.52 0.60,-2.45 0.90,-2.38 1.17,-2.23 1.44,-2.09 1.67,-1.89 1.90,-1.68 2.08,-1.43 2.25,-1.18 2.36,-0.89 2.47,-0.60 2.51,-0.30 2.54,0.00 2.54,0.00 L 2.54,0 Z"></path></g><g transform="translate(52.42025744472221 112.66017693871407) rotate(0 -0.4247621413400111 16.14859182854906)" stroke="none"><path d="M0.06 -2.6 C0.06 -2.6, 0.06 -2.6, 0.06 -2.6 M0.06 -2.6 C0.06 -2.6, 0.06 -2.6, 0.06 -2.6 M-9.39 14.36 C-6.42 10.38, -2.5 7.42, 0.45 3.04 M-9.39 14.36 C-6.65 11.32, -4.28 8.42, 0.45 3.04 M-6.37 16.99 C-4.58 14.52, -2.13 12.16, 2.16 7.17 M-6.37 16.99 C-3.54 13.31, -0.51 10.08, 2.16 7.17 M-3.35 19.61 C0.49 15.8, 2.78 11.59, 5.18 9.8 M-3.35 19.61 C0.01 15.88, 3.02 12.78, 5.18 9.8 M-0.33 22.23 C3.48 18.13, 7.93 13.01, 10.82 9.4 M-0.33 22.23 C3.96 17.53, 8.56 12.57, 10.82 9.4 M2.03 25.61 C4.06 23.67, 5.56 21.24, 7.93 18.82 M2.03 25.61 C3.85 23.54, 5.59 21.64, 7.93 18.82 M3.74 29.75 C4.87 28.64, 5.46 27.9, 7.67 25.22 M3.74 29.75 C4.75 28.75, 5.51 27.63, 7.67 25.22 M5.44 33.88 C5.84 33.42, 6.33 33.03, 6.75 32.37 M5.44 33.88 C5.8 33.46, 6.19 33.02, 6.75 32.37 M6.46 35.25 C6.46 35.25, 6.46 35.25, 6.46 35.25 M6.46 35.25 C6.46 35.25, 6.46 35.25, 6.46 35.25 M6.82 30.26 C5.59 28.79, 4.11 27.8, 3.04 26.98 M6.82 30.26 C5.42 29.19, 4.22 27.8, 3.04 26.98 M6.42 24.62 C2.55 20.7, -2.09 17.9, -9.43 10.84 M6.42 24.62 C1.96 20.33, -2.16 16.45, -9.43 10.84 M7.54 20.29 C4.01 15.79, -0.5 13.12, -6.8 7.83 M7.54 20.29 C2.31 15.86, -3.25 10.93, -6.8 7.83 M8.65 15.96 C6.41 14.04, 2.59 10.64, -3.42 5.46 M8.65 15.96 C6.28 13.27, 3.29 11.04, -3.42 5.46 M9.77 11.63 C8.75 10.74, 7.65 10.06, 5.99 8.35 M9.77 11.63 C8.24 10.25, 6.65 9.1, 5.99 8.35 M0.71 3.76 C0.24 3.38, -0.11 3.04, -0.8 2.44 M0.71 3.76 C0.38 3.39, -0.07 3.13, -0.8 2.44 M10.88 7.3 C10.68 7.06, 10.42 6.89, 10.13 6.64 M10.88 7.3 C10.69 7.12, 10.53 6.99, 10.13 6.64 M0.32 -1.89 C0.32 -1.89, 0.32 -1.89, 0.32 -1.89 M0.32 -1.89 C0.32 -1.89, 0.32 -1.89, 0.32 -1.89" stroke="#ffec99" stroke-width="0.5" fill="none"></path><path fill="#1e1e1e" d="M 2.58,0.52 Q 2.58,0.52 2.43,1.45 2.27,2.38 1.81,3.72 1.36,5.06 0.65,6.00 -0.05,6.93 -0.84,7.68 -1.64,8.42 -2.88,9.34 -4.12,10.27 -5.36,11.19 -6.61,12.12 -7.65,13.02 -8.70,13.92 -9.45,14.60 -10.20,15.29 -10.55,15.50 -10.91,15.71 -11.30,15.82 -11.70,15.94 -12.11,15.96 -12.52,15.98 -12.92,15.90 -13.33,15.82 -13.70,15.65 -14.07,15.48 -14.40,15.22 -14.72,14.96 -14.97,14.63 -15.22,14.30 -15.38,13.93 -15.54,13.55 -15.61,13.14 -15.68,12.74 -15.65,12.33 -15.62,11.92 -15.50,11.53 -15.37,11.13 -15.15,10.78 -14.93,10.44 -14.64,10.15 -14.34,9.86 -12.57,9.67 -10.81,9.48 -9.77,9.93 -8.74,10.37 -7.44,11.17 -6.14,11.97 -4.92,12.86 -3.70,13.74 -2.48,14.90 -1.25,16.06 -0.04,17.43 1.16,18.80 2.35,20.38 3.53,21.96 4.38,23.23 5.24,24.50 5.85,25.70 6.47,26.91 7.00,28.26 7.53,29.61 7.90,30.69 8.26,31.78 6.09,32.09 3.93,32.40 3.53,31.11 3.13,29.83 3.13,28.16 3.14,26.50 3.15,25.23 3.16,23.96 3.36,22.34 3.56,20.71 3.85,19.32 4.14,17.93 4.45,16.43 4.75,14.93 5.23,13.17 5.72,11.41 6.17,10.03 6.63,8.66 7.03,7.55 7.43,6.45 8.02,5.42 8.60,4.39 8.89,4.08 9.18,3.77 9.54,3.54 9.90,3.31 10.30,3.17 10.71,3.03 11.13,2.99 11.56,2.96 11.98,3.02 12.40,3.09 12.79,3.25 13.18,3.42 13.53,3.67 13.87,3.92 14.14,4.25 14.41,4.58 14.60,4.96 14.79,5.34 14.87,5.76 14.96,6.18 14.95,6.60 14.93,7.03 14.82,7.44 14.70,7.85 14.49,8.22 14.28,8.59 13.20,9.10 12.12,9.61 11.37,10.55 10.62,11.50 9.16,12.13 7.69,12.77 6.38,12.85 5.07,12.93 3.11,12.69 1.16,12.45 -0.24,11.33 -1.65,10.22 -2.28,8.89 -2.92,7.55 -3.18,6.35 -3.44,5.15 -3.48,3.75 -3.52,2.35 -3.52,1.06 -3.53,-0.22 -3.56,-0.11 -3.60,0.00 -3.54,-0.43 -3.49,-0.86 -3.34,-1.26 -3.18,-1.67 -2.94,-2.03 -2.69,-2.38 -2.37,-2.67 -2.04,-2.96 -1.66,-3.16 -1.27,-3.36 -0.85,-3.47 -0.43,-3.57 -0.00,-3.57 0.43,-3.57 0.85,-3.47 1.27,-3.36 1.66,-3.16 2.04,-2.96 2.37,-2.67 2.69,-2.38 2.94,-2.03 3.18,-1.67 3.34,-1.26 3.49,-0.86 3.54,-0.43 3.60,-0.00 3.46,0.69 3.32,1.39 3.01,1.88 2.70,2.38 2.25,2.74 1.80,3.11 1.25,3.32 0.71,3.53 0.12,3.55 -0.45,3.57 -1.01,3.40 -1.57,3.24 -2.04,2.90 -2.52,2.56 -2.86,2.09 -3.21,1.62 -3.38,1.07 -3.56,0.51 -3.55,-0.06 -3.54,-0.64 -3.34,-1.19 -3.15,-1.74 -2.78,-2.20 -2.42,-2.65 -1.94,-2.97 -1.45,-3.29 -0.88,-3.44 -0.32,-3.58 0.25,-3.54 0.83,-3.50 1.37,-3.27 1.91,-3.05 2.34,-2.66 2.78,-2.28 3.07,-1.77 3.36,-1.27 3.48,-0.70 3.59,-0.12 3.52,0.44 3.45,1.02 3.19,1.55 2.94,2.07 2.53,2.49 2.12,2.90 1.60,3.16 1.08,3.43 0.51,3.51 -0.06,3.60 -0.63,3.49 -1.21,3.39 -1.72,3.10 -2.23,2.82 -2.62,2.39 -3.01,1.96 -3.25,1.43 -3.48,0.89 -3.53,0.31 -3.59,-0.26 -3.59,-0.13 -3.60,0.00 -3.54,-0.43 -3.49,-0.86 -3.34,-1.26 -3.18,-1.67 -2.94,-2.03 -2.69,-2.38 -2.37,-2.67 -2.04,-2.96 -1.66,-3.16 -1.27,-3.36 -0.85,-3.47 -0.43,-3.57 -0.00,-3.57 0.43,-3.57 0.85,-3.47 1.27,-3.36 1.66,-3.16 2.04,-2.96 2.37,-2.67 2.69,-2.38 2.94,-2.03 3.18,-1.67 3.34,-1.26 3.49,-0.86 3.54,-0.43 3.60,-0.00 3.73,0.27 3.87,0.54 3.87,1.86 3.88,3.17 3.96,4.40 4.05,5.63 5.37,5.55 6.68,5.48 7.65,4.87 8.63,4.26 9.68,3.81 10.73,3.37 9.66,3.88 8.60,4.39 8.89,4.08 9.18,3.77 9.54,3.54 9.90,3.31 10.30,3.17 10.71,3.03 11.13,2.99 11.56,2.96 11.98,3.02 12.40,3.09 12.79,3.25 13.18,3.42 13.53,3.67 13.87,3.92 14.14,4.25 14.41,4.58 14.60,4.96 14.78,5.34 14.87,5.76 14.96,6.18 14.95,6.60 14.93,7.03 14.82,7.44 14.70,7.85 14.49,8.22 14.28,8.59 13.95,9.19 13.61,9.78 13.22,10.97 12.83,12.15 12.42,13.42 12.01,14.69 11.69,16.27 11.38,17.85 11.13,19.28 10.88,20.71 10.63,22.33 10.37,23.96 10.38,25.23 10.39,26.50 10.39,27.68 10.39,28.86 10.36,30.44 10.33,32.02 10.07,33.68 9.82,35.35 9.16,36.32 8.51,37.30 7.16,37.79 5.81,38.29 4.65,37.97 3.49,37.65 2.65,36.27 1.80,34.90 1.49,33.72 1.18,32.54 0.69,31.14 0.20,29.74 -0.46,28.46 -1.14,27.18 -2.03,25.94 -2.93,24.71 -4.06,23.41 -5.18,22.11 -6.14,21.12 -7.09,20.14 -7.97,19.44 -8.86,18.75 -10.05,17.83 -11.23,16.91 -12.29,16.37 -13.34,15.82 -11.77,15.56 -10.20,15.29 -10.55,15.50 -10.91,15.71 -11.30,15.82 -11.70,15.94 -12.11,15.96 -12.52,15.98 -12.92,15.90 -13.33,15.82 -13.70,15.65 -14.07,15.48 -14.40,15.22 -14.72,14.96 -14.97,14.63 -15.22,14.31 -15.38,13.93 -15.54,13.55 -15.61,13.14 -15.68,12.74 -15.65,12.33 -15.62,11.92 -15.50,11.53 -15.37,11.13 -15.15,10.79 -14.93,10.44 -14.64,10.15 -14.34,9.86 -13.91,9.53 -13.48,9.19 -12.50,8.44 -11.51,7.69 -10.52,6.94 -9.54,6.19 -8.20,5.35 -6.87,4.52 -5.84,3.90 -4.81,3.28 -3.91,2.29 -3.02,1.29 -2.80,0.38 -2.58,-0.52 -2.48,-0.82 -2.38,-1.12 -2.21,-1.39 -2.04,-1.66 -1.81,-1.88 -1.58,-2.10 -1.31,-2.26 -1.03,-2.42 -0.73,-2.51 -0.42,-2.60 -0.10,-2.61 0.20,-2.62 0.52,-2.56 0.83,-2.50 1.12,-2.36 1.40,-2.23 1.65,-2.02 1.90,-1.82 2.09,-1.57 2.28,-1.32 2.40,-1.02 2.53,-0.73 2.58,-0.42 2.63,-0.10 2.60,0.20 2.58,0.52 2.58,0.52 L 2.58,0.52 Z"></path></g></svg>