<svg version="1.1" xmlns="http://www.w3.org/2000/svg" viewBox="0 0 182.45185848403435 132.5029965024205" width="364.9037169680687" height="265.005993004841"><g transform="translate(10 79.78244533830082) rotate(0 81.22592924201717 -34.89122266915041)" stroke="none"><path fill="#1e1e1e" d="M -1.60,-0.08 Q -1.60,-0.08 -1.56,-1.79 -1.51,-3.49 -1.19,-5.55 -0.87,-7.61 -0.14,-9.91 0.59,-12.22 1.44,-14.58 2.29,-16.94 3.17,-19.39 4.06,-21.85 5.12,-24.45 6.19,-27.06 7.45,-29.86 8.71,-32.66 10.04,-35.47 11.37,-38.27 12.80,-40.93 14.22,-43.59 15.77,-46.04 17.31,-48.49 18.93,-50.73 20.56,-52.97 22.30,-55.04 24.04,-57.12 25.77,-58.85 27.49,-60.58 28.98,-61.87 30.47,-63.17 31.57,-64.11 32.67,-65.05 34.09,-66.01 35.51,-66.97 37.12,-66.91 38.73,-66.85 39.54,-65.78 40.36,-64.71 40.77,-63.26 41.19,-61.81 41.59,-60.33 41.98,-58.84 42.51,-57.46 43.04,-56.08 43.60,-55.07 44.16,-54.07 45.01,-52.38 45.86,-50.69 46.36,-49.72 46.87,-48.75 47.40,-47.76 47.93,-46.77 48.45,-45.73 48.98,-44.68 49.45,-43.67 49.92,-42.66 50.74,-41.08 51.56,-39.49 52.28,-38.28 53.00,-37.07 53.56,-35.99 54.13,-34.90 54.78,-33.60 55.43,-32.30 56.02,-31.24 56.60,-30.18 58.76,-29.93 60.91,-29.68 62.67,-29.54 64.43,-29.40 66.73,-29.18 69.04,-28.97 71.56,-28.80 74.08,-28.62 76.46,-28.49 78.83,-28.36 81.02,-28.26 83.20,-28.16 85.09,-28.14 86.99,-28.13 88.54,-28.17 90.08,-28.22 91.34,-28.29 92.59,-28.36 93.67,-28.43 94.74,-28.50 96.57,-28.62 98.40,-28.75 100.01,-28.84 101.62,-28.94 102.83,-29.02 104.04,-29.09 103.40,-28.10 102.77,-27.11 102.57,-28.25 102.38,-29.39 102.33,-30.61 102.27,-31.84 102.27,-33.64 102.28,-35.44 102.41,-36.87 102.53,-38.31 102.98,-40.12 103.43,-41.94 104.23,-43.88 105.03,-45.83 105.84,-47.67 106.66,-49.52 107.35,-51.27 108.05,-53.02 108.64,-54.63 109.23,-56.25 109.70,-57.62 110.17,-58.99 110.53,-60.05 110.88,-61.12 111.33,-62.45 111.78,-63.78 112.42,-65.15 113.05,-66.52 113.90,-67.97 114.76,-69.42 115.53,-70.30 116.31,-71.19 117.44,-71.90 118.58,-72.60 120.24,-72.51 121.91,-72.42 122.90,-71.39 123.88,-70.36 124.43,-69.30 124.98,-68.24 125.56,-67.26 126.14,-66.27 126.93,-65.00 127.72,-63.72 128.37,-62.86 129.02,-62.01 129.92,-60.87 130.82,-59.73 131.89,-58.36 132.97,-56.99 134.13,-55.53 135.30,-54.07 136.51,-52.54 137.73,-51.01 138.98,-49.40 140.22,-47.80 141.47,-46.12 142.71,-44.43 143.90,-42.70 145.08,-40.97 146.13,-39.36 147.17,-37.74 148.10,-36.21 149.04,-34.67 149.85,-33.23 150.67,-31.79 151.38,-30.55 152.08,-29.31 152.72,-28.18 153.37,-27.05 153.96,-26.03 154.56,-25.02 155.12,-24.06 155.69,-23.09 156.25,-22.14 156.80,-21.19 157.35,-20.26 157.90,-19.33 158.41,-18.39 158.92,-17.44 159.78,-16.01 160.64,-14.57 161.33,-13.43 162.03,-12.29 162.46,-11.18 162.89,-10.07 163.38,-8.97 163.88,-7.88 164.35,-6.55 164.83,-5.21 165.28,-2.75 165.73,-0.28 165.68,0.24 165.64,0.77 165.42,1.25 165.21,1.74 164.86,2.14 164.50,2.53 164.04,2.79 163.57,3.05 163.05,3.15 162.53,3.25 162.00,3.18 161.47,3.10 161.00,2.87 160.52,2.63 160.14,2.25 159.77,1.87 159.54,1.40 159.30,0.92 159.23,0.39 159.16,-0.13 159.26,-0.65 159.36,-1.17 159.63,-1.63 159.89,-2.10 160.29,-2.45 160.68,-2.80 161.17,-3.01 161.66,-3.22 162.19,-3.26 162.72,-3.30 163.24,-3.17 163.76,-3.04 164.20,-2.76 164.65,-2.47 164.98,-2.05 165.31,-1.64 165.50,-1.14 165.68,-0.64 165.69,-0.10 165.70,0.42 165.55,0.93 165.39,1.43 165.08,1.86 164.76,2.30 164.33,2.60 163.90,2.91 163.39,3.07 162.88,3.22 162.35,3.21 161.82,3.19 161.32,3.01 160.82,2.82 160.41,2.49 159.99,2.15 159.71,1.70 159.42,1.25 159.30,0.74 159.17,0.22 159.17,0.22 159.17,0.22 158.78,-1.96 158.40,-4.15 158.09,-5.22 157.79,-6.29 157.47,-7.31 157.15,-8.33 156.82,-9.48 156.49,-10.63 155.78,-12.02 155.06,-13.41 154.25,-15.17 153.45,-16.93 152.96,-17.91 152.47,-18.89 151.99,-19.88 151.51,-20.88 151.03,-21.90 150.55,-22.92 150.05,-24.00 149.54,-25.09 149.00,-26.26 148.47,-27.44 147.88,-28.70 147.28,-29.96 146.56,-31.37 145.85,-32.78 144.98,-34.26 144.12,-35.74 143.11,-37.26 142.10,-38.78 140.86,-40.35 139.63,-41.92 138.28,-43.43 136.93,-44.94 135.54,-46.37 134.15,-47.81 132.78,-49.16 131.41,-50.52 130.05,-51.82 128.68,-53.13 127.41,-54.37 126.14,-55.61 125.04,-56.73 123.95,-57.86 123.04,-58.91 122.14,-59.96 121.18,-61.47 120.22,-62.98 119.67,-63.98 119.12,-64.98 118.56,-66.37 118.00,-67.76 118.70,-66.72 119.41,-65.69 118.62,-64.63 117.82,-63.57 117.12,-62.60 116.42,-61.63 115.83,-60.52 115.25,-59.40 114.81,-58.43 114.36,-57.46 113.85,-56.13 113.34,-54.81 112.79,-53.18 112.25,-51.55 111.69,-49.71 111.13,-47.87 110.58,-45.99 110.02,-44.11 109.58,-42.44 109.14,-40.77 108.94,-39.36 108.73,-37.95 108.70,-36.69 108.68,-35.44 108.70,-34.36 108.71,-33.28 108.67,-31.76 108.63,-30.24 108.56,-29.04 108.49,-27.84 108.14,-26.33 107.79,-24.82 105.91,-24.17 104.04,-23.51 102.83,-23.58 101.62,-23.66 100.01,-23.76 98.40,-23.85 96.57,-23.98 94.74,-24.10 93.67,-24.17 92.59,-24.24 91.34,-24.31 90.08,-24.38 88.54,-24.43 86.99,-24.47 85.09,-24.46 83.20,-24.44 81.02,-24.34 78.83,-24.24 76.46,-24.11 74.08,-23.98 71.56,-23.80 69.04,-23.63 66.73,-23.42 64.42,-23.20 62.66,-23.06 60.90,-22.93 59.65,-22.88 58.39,-22.83 56.59,-22.92 54.80,-23.01 53.60,-23.64 52.41,-24.28 51.70,-25.29 51.00,-26.31 50.44,-27.45 49.89,-28.59 49.30,-29.91 48.71,-31.24 48.10,-32.66 47.49,-34.08 46.81,-35.36 46.14,-36.63 45.29,-38.36 44.43,-40.09 43.51,-41.95 42.60,-43.80 42.01,-44.83 41.43,-45.85 40.85,-46.90 40.27,-47.95 39.48,-49.57 38.68,-51.18 38.03,-52.59 37.38,-54.00 37.02,-55.24 36.67,-56.49 36.47,-57.64 36.27,-58.80 36.15,-59.88 36.02,-60.95 36.49,-62.10 36.96,-63.26 35.78,-62.84 34.60,-62.43 33.44,-61.71 32.27,-60.98 30.82,-59.85 29.37,-58.71 27.72,-57.06 26.07,-55.41 24.39,-53.41 22.72,-51.41 21.15,-49.24 19.58,-47.07 18.09,-44.69 16.60,-42.31 15.22,-39.71 13.84,-37.11 12.54,-34.32 11.24,-31.53 10.02,-28.77 8.80,-26.01 7.79,-23.45 6.79,-20.90 5.95,-18.43 5.12,-15.96 4.35,-13.64 3.59,-11.31 2.99,-9.22 2.40,-7.13 2.14,-5.21 1.88,-3.30 1.74,-1.60 1.60,0.08 1.57,0.27 1.53,0.46 1.45,0.64 1.38,0.82 1.26,0.97 1.14,1.12 0.99,1.24 0.83,1.37 0.66,1.45 0.48,1.53 0.29,1.56 0.10,1.60 -0.08,1.59 -0.28,1.58 -0.46,1.52 -0.65,1.46 -0.81,1.36 -0.98,1.27 -1.12,1.13 -1.25,0.99 -1.36,0.83 -1.46,0.66 -1.52,0.48 -1.57,0.29 -1.59,0.10 -1.60,-0.08 -1.60,-0.08 L -1.60,-0.08 Z"></path></g><g transform="translate(61.37091273635451 80.11515155261759) rotate(0 4.140045876537897 -1.108126342845253)" stroke="none"><path d="M-2.66 -2.31 C-2.66 -2.31, -2.66 -2.31, -2.66 -2.31 M-2.66 -2.31 C-2.66 -2.31, -2.66 -2.31, -2.66 -2.31 M0.36 0.31 C0.75 -0.05, 1.04 -0.62, 1.67 -1.2 M0.36 0.31 C0.86 -0.25, 1.39 -0.82, 1.67 -1.2 M5.34 0.67 C5.52 0.4, 5.84 0.15, 6 -0.08 M5.34 0.67 C5.58 0.39, 5.79 0.14, 6 -0.08" stroke="#ffc9c9" stroke-width="0.5" fill="none"></path><path fill="#1e1e1e" d="M 0,-2.60 Q 0,-2.60 1.24,-2.62 2.48,-2.63 4.07,-2.70 5.67,-2.78 6.80,-2.84 7.93,-2.91 9.06,-2.98 10.18,-3.06 10.42,-3.08 10.66,-3.09 11.04,-3.05 11.41,-3.00 11.76,-2.87 12.10,-2.74 12.41,-2.53 12.72,-2.31 12.97,-2.03 13.21,-1.75 13.39,-1.42 13.56,-1.09 13.65,-0.73 13.74,-0.37 13.74,0.00 13.74,0.37 13.65,0.73 13.56,1.09 13.39,1.42 13.21,1.76 12.97,2.03 12.72,2.31 12.41,2.53 12.10,2.74 11.75,2.87 11.41,3.00 11.03,3.05 10.66,3.09 9.45,3.12 8.24,3.15 6.60,3.12 4.96,3.10 3.23,2.75 1.51,2.40 -0.02,2.04 -1.56,1.68 -2.61,1.34 -3.66,0.99 -4.01,0.80 -4.37,0.60 -4.67,0.32 -4.97,0.05 -5.20,-0.28 -5.42,-0.62 -5.56,-1.01 -5.70,-1.39 -5.74,-1.80 -5.78,-2.21 -5.72,-2.61 -5.66,-3.01 -5.51,-3.39 -5.36,-3.77 -5.12,-4.10 -4.88,-4.43 -4.57,-4.70 -4.26,-4.96 -3.89,-5.14 -3.53,-5.33 -3.13,-5.42 -2.73,-5.51 -2.32,-5.50 -1.91,-5.49 -1.52,-5.38 -1.13,-5.28 0.48,-3.81 2.10,-2.35 2.42,-1.95 2.74,-1.55 2.92,-1.08 3.09,-0.60 3.11,-0.09 3.12,0.41 2.98,0.90 2.83,1.39 2.53,1.81 2.23,2.22 1.82,2.52 1.40,2.82 0.92,2.97 0.43,3.12 -0.07,3.11 -0.58,3.10 -1.06,2.92 -1.54,2.75 -1.94,2.43 -2.34,2.11 -2.62,1.68 -2.89,1.25 -3.02,0.75 -3.14,0.26 -3.10,-0.24 -3.06,-0.75 -2.86,-1.22 -2.66,-1.69 -2.32,-2.07 -1.98,-2.45 -1.53,-2.70 -1.09,-2.96 -0.59,-3.05 -0.09,-3.15 0.41,-3.08 0.92,-3.02 1.37,-2.79 1.83,-2.56 2.19,-2.20 2.56,-1.84 2.78,-1.38 3.01,-0.93 3.08,-0.42 3.15,0.07 3.06,0.58 2.96,1.08 2.71,1.52 2.46,1.97 2.08,2.31 1.70,2.65 1.23,2.86 0.76,3.06 0.25,3.10 -0.25,3.14 -0.74,3.02 -1.24,2.90 -1.67,2.62 -2.10,2.35 -2.10,2.35 -2.10,2.35 -2.88,1.67 -3.66,1.00 -4.01,0.80 -4.37,0.60 -4.67,0.32 -4.97,0.05 -5.20,-0.28 -5.42,-0.62 -5.56,-1.01 -5.70,-1.39 -5.74,-1.80 -5.78,-2.20 -5.72,-2.61 -5.66,-3.01 -5.51,-3.39 -5.36,-3.77 -5.12,-4.10 -4.88,-4.43 -4.57,-4.70 -4.26,-4.96 -3.89,-5.14 -3.53,-5.33 -3.13,-5.42 -2.73,-5.51 -2.32,-5.50 -1.92,-5.49 -1.52,-5.38 -1.13,-5.28 -0.09,-4.88 0.93,-4.48 2.10,-4.16 3.27,-3.83 4.30,-3.55 5.32,-3.28 6.78,-3.21 8.24,-3.15 9.45,-3.12 10.66,-3.09 11.03,-3.05 11.41,-3.00 11.75,-2.87 12.10,-2.74 12.41,-2.53 12.72,-2.31 12.97,-2.03 13.21,-1.76 13.39,-1.42 13.56,-1.09 13.65,-0.73 13.74,-0.37 13.74,-0.00 13.74,0.37 13.65,0.73 13.56,1.09 13.39,1.42 13.21,1.75 12.97,2.03 12.72,2.31 12.41,2.53 12.10,2.74 11.76,2.87 11.41,3.00 11.04,3.05 10.66,3.09 10.42,3.08 10.18,3.06 9.06,2.98 7.93,2.91 6.80,2.84 5.67,2.78 4.07,2.70 2.48,2.63 1.24,2.62 0,2.60 -0.31,2.57 -0.62,2.53 -0.91,2.42 -1.21,2.31 -1.47,2.13 -1.73,1.95 -1.93,1.71 -2.14,1.48 -2.29,1.20 -2.43,0.92 -2.51,0.61 -2.59,0.31 -2.59,-0.00 -2.59,-0.31 -2.51,-0.61 -2.43,-0.92 -2.29,-1.20 -2.14,-1.48 -1.93,-1.71 -1.73,-1.95 -1.47,-2.13 -1.21,-2.31 -0.91,-2.42 -0.62,-2.53 -0.31,-2.57 0.00,-2.60 0.00,-2.60 L 0,-2.60 Z"></path></g><g transform="translate(111.38416946912639 78.2530699982965) rotate(0 6.020909233280236 -0.22001539979009976)" stroke="none"><path d="M-2.32 -0.69 C-2.32 -0.69, -2.32 -0.69, -2.32 -0.69 M-2.32 -0.69 C-2.32 -0.69, -2.32 -0.69, -2.32 -0.69 M2.02 0.43 C2.18 0.2, 2.42 -0.03, 2.67 -0.33 M2.02 0.43 C2.12 0.29, 2.29 0.09, 2.67 -0.33 M7 0.79 C7.22 0.59, 7.38 0.31, 7.66 0.03 M7 0.79 C7.19 0.54, 7.4 0.32, 7.66 0.03 M12.65 0.39 C12.87 0.21, 12.99 0, 13.3 -0.36 M12.65 0.39 C12.87 0.13, 13.14 -0.17, 13.3 -0.36" stroke="#ffc9c9" stroke-width="0.5" fill="none"></path><path fill="#1e1e1e" d="M 0,-2.53 Q 0,-2.53 1.79,-2.46 3.59,-2.39 4.84,-2.42 6.10,-2.45 7.61,-2.54 9.13,-2.64 10.32,-2.73 11.51,-2.83 12.60,-2.92 13.70,-3.00 14.06,-2.96 14.42,-2.92 14.76,-2.79 15.10,-2.66 15.39,-2.45 15.69,-2.25 15.93,-1.98 16.17,-1.70 16.34,-1.38 16.51,-1.06 16.60,-0.71 16.69,-0.36 16.69,0.00 16.69,0.36 16.60,0.71 16.51,1.06 16.34,1.38 16.17,1.70 15.93,1.98 15.69,2.25 15.39,2.45 15.10,2.66 14.76,2.79 14.42,2.92 14.06,2.96 13.70,3.00 12.12,3.07 10.55,3.13 8.74,2.99 6.93,2.84 5.63,2.82 4.33,2.80 2.93,2.83 1.52,2.86 0.76,3.10 -0.00,3.34 -0.40,3.29 -0.80,3.24 -1.18,3.09 -1.55,2.95 -1.88,2.72 -2.21,2.49 -2.48,2.19 -2.75,1.89 -2.93,1.53 -3.12,1.18 -3.22,0.78 -3.31,0.39 -3.31,-0.00 -3.31,-0.40 -3.21,-0.79 -3.12,-1.18 -2.93,-1.54 -2.74,-1.90 -2.47,-2.20 -2.21,-2.50 -1.87,-2.73 -1.54,-2.96 -1.17,-3.10 -0.79,-3.24 -0.39,-3.29 0.00,-3.34 0.99,-3.01 1.97,-2.69 2.35,-2.30 2.73,-1.91 2.96,-1.43 3.20,-0.94 3.27,-0.40 3.33,0.12 3.23,0.65 3.12,1.18 2.85,1.65 2.58,2.12 2.17,2.47 1.76,2.83 1.26,3.04 0.77,3.25 0.23,3.28 -0.30,3.32 -0.83,3.18 -1.35,3.05 -1.80,2.75 -2.25,2.46 -2.59,2.03 -2.92,1.61 -3.10,1.10 -3.28,0.59 -3.29,0.05 -3.30,-0.48 -3.14,-1.00 -2.97,-1.51 -2.65,-1.95 -2.33,-2.38 -1.89,-2.69 -1.45,-3.00 -0.93,-3.16 -0.41,-3.31 0.12,-3.29 0.66,-3.27 1.17,-3.08 1.67,-2.88 2.09,-2.54 2.51,-2.20 2.79,-1.74 3.08,-1.28 3.20,-0.75 3.33,-0.23 3.28,0.30 3.23,0.84 3.01,1.33 2.79,1.83 2.42,2.22 2.06,2.62 1.58,2.88 1.11,3.14 0.58,3.24 0.05,3.34 -0.48,3.26 -1.01,3.18 -0.51,3.26 -0.00,3.34 -0.40,3.29 -0.80,3.24 -1.17,3.09 -1.55,2.95 -1.88,2.72 -2.21,2.49 -2.48,2.19 -2.75,1.89 -2.93,1.53 -3.12,1.18 -3.22,0.78 -3.31,0.39 -3.31,-0.00 -3.31,-0.40 -3.21,-0.79 -3.12,-1.18 -2.93,-1.54 -2.74,-1.90 -2.47,-2.20 -2.21,-2.50 -1.88,-2.73 -1.54,-2.95 -1.17,-3.10 -0.79,-3.24 -0.39,-3.29 0.00,-3.34 0.77,-3.54 1.54,-3.74 3.01,-3.68 4.48,-3.63 6.04,-3.54 7.61,-3.46 9.08,-3.29 10.55,-3.13 12.12,-3.07 13.70,-3.00 14.06,-2.96 14.42,-2.92 14.76,-2.79 15.10,-2.66 15.39,-2.45 15.69,-2.25 15.93,-1.98 16.17,-1.70 16.34,-1.38 16.51,-1.06 16.60,-0.71 16.69,-0.36 16.69,-0.00 16.69,0.36 16.60,0.71 16.51,1.06 16.34,1.38 16.17,1.70 15.93,1.98 15.69,2.25 15.39,2.45 15.10,2.66 14.76,2.79 14.42,2.92 14.06,2.96 13.70,3.00 12.60,2.92 11.51,2.83 10.32,2.73 9.13,2.64 7.61,2.54 6.10,2.45 4.84,2.42 3.59,2.39 1.79,2.46 0,2.53 -0.30,2.50 -0.60,2.46 -0.89,2.35 -1.17,2.24 -1.43,2.07 -1.68,1.89 -1.88,1.67 -2.08,1.44 -2.23,1.17 -2.37,0.89 -2.44,0.60 -2.51,0.30 -2.51,-0.00 -2.51,-0.30 -2.44,-0.60 -2.37,-0.90 -2.23,-1.17 -2.08,-1.44 -1.88,-1.67 -1.68,-1.89 -1.43,-2.07 -1.17,-2.24 -0.89,-2.35 -0.60,-2.46 -0.30,-2.50 0.00,-2.53 0.00,-2.53 L 0,-2.53 Z"></path></g><g transform="translate(85.73895982042313 98.09201958424683) rotate(0 10.724409182450927 5.076452882961632)" stroke="none"><path fill="#1e1e1e" d="M 0,-2.64 Q 0,-2.64 1.48,-2.62 2.96,-2.60 4.02,-2.62 5.09,-2.65 6.94,-2.72 8.79,-2.78 10.48,-2.83 12.17,-2.89 13.55,-2.94 14.92,-2.99 16.46,-3.06 18.00,-3.13 19.29,-3.18 20.58,-3.23 21.82,-2.56 23.05,-1.89 23.30,-0.29 23.55,1.31 23.00,2.31 22.46,3.30 21.40,4.04 20.34,4.78 19.30,5.58 18.25,6.39 17.08,7.42 15.90,8.45 13.54,10.91 11.18,13.37 10.63,13.53 10.07,13.70 9.49,13.68 8.92,13.66 8.37,13.46 7.83,13.26 7.38,12.89 6.93,12.53 6.62,12.04 6.31,11.55 6.17,10.99 6.03,10.42 6.08,9.85 6.13,9.27 6.36,8.74 6.59,8.20 6.98,7.77 7.37,7.34 7.88,7.06 8.38,6.78 8.95,6.67 9.52,6.57 10.10,6.65 10.67,6.73 11.19,6.99 11.71,7.25 12.12,7.66 12.53,8.07 12.78,8.59 13.04,9.11 13.11,9.69 13.19,10.26 13.08,10.83 12.96,11.40 12.68,11.90 12.39,12.41 11.96,12.79 11.52,13.18 10.99,13.40 10.46,13.63 9.88,13.67 9.30,13.72 8.74,13.58 8.17,13.43 7.69,13.12 7.20,12.80 6.84,12.35 6.48,11.90 6.28,11.35 6.08,10.81 6.07,10.23 6.06,9.65 6.23,9.09 6.40,8.54 6.74,8.07 7.08,7.60 7.56,7.27 8.03,6.93 8.03,6.93 8.03,6.93 8.86,5.75 9.70,4.57 10.60,3.79 11.49,3.01 12.43,2.29 13.36,1.56 14.57,0.66 15.78,-0.23 17.22,-0.69 18.66,-1.16 19.62,1.03 20.58,3.23 19.29,3.18 18.00,3.13 16.46,3.06 14.92,2.99 13.55,2.94 12.17,2.89 10.48,2.83 8.79,2.78 6.94,2.72 5.09,2.65 4.02,2.62 2.96,2.60 1.48,2.62 0,2.64 -0.31,2.60 -0.63,2.56 -0.93,2.45 -1.22,2.34 -1.49,2.16 -1.75,1.98 -1.96,1.74 -2.17,1.50 -2.32,1.22 -2.47,0.93 -2.55,0.62 -2.62,0.31 -2.62,-0.00 -2.62,-0.31 -2.55,-0.62 -2.47,-0.93 -2.32,-1.22 -2.17,-1.50 -1.96,-1.74 -1.75,-1.98 -1.49,-2.16 -1.22,-2.34 -0.93,-2.45 -0.63,-2.56 -0.31,-2.60 0.00,-2.64 0.00,-2.64 L 0,-2.64 Z"></path></g><g transform="translate(83.6675953248382 97.37294486298174) rotate(0 3.5148801673781236 4.609590937065548)" stroke="none"><path fill="#1e1e1e" d="M 2.18,-1.46 Q 2.18,-1.46 2.81,-0.56 3.44,0.32 4.23,1.29 5.02,2.26 5.83,3.09 6.64,3.92 8.16,5.80 9.68,7.69 9.85,8.15 10.02,8.61 10.04,9.11 10.06,9.60 9.92,10.08 9.78,10.55 9.49,10.96 9.21,11.36 8.81,11.65 8.41,11.94 7.93,12.09 7.46,12.24 6.97,12.23 6.47,12.22 6.01,12.06 5.54,11.89 5.15,11.58 4.76,11.28 4.49,10.86 4.22,10.45 4.10,9.97 3.98,9.49 4.01,8.99 4.05,8.50 4.24,8.04 4.43,7.59 4.76,7.22 5.09,6.84 5.52,6.60 5.95,6.35 6.43,6.25 6.92,6.16 7.41,6.22 7.90,6.28 8.35,6.50 8.79,6.72 9.14,7.06 9.50,7.41 9.72,7.85 9.94,8.29 10.01,8.78 10.08,9.27 9.99,9.76 9.90,10.25 9.66,10.68 9.42,11.11 9.06,11.45 8.69,11.78 8.24,11.98 7.79,12.18 7.29,12.22 6.80,12.27 6.32,12.15 5.84,12.03 5.42,11.77 5.00,11.51 4.69,11.12 4.37,10.74 4.37,10.74 4.37,10.74 3.32,9.38 2.27,8.01 1.38,6.83 0.49,5.64 -0.25,4.47 -0.99,3.31 -1.59,2.39 -2.18,1.46 -2.32,1.18 -2.47,0.90 -2.54,0.59 -2.61,0.28 -2.61,-0.03 -2.60,-0.35 -2.52,-0.65 -2.44,-0.96 -2.29,-1.24 -2.14,-1.52 -1.93,-1.75 -1.71,-1.99 -1.45,-2.16 -1.19,-2.34 -0.89,-2.45 -0.59,-2.56 -0.28,-2.59 0.03,-2.63 0.34,-2.58 0.66,-2.54 0.95,-2.43 1.25,-2.31 1.51,-2.13 1.76,-1.94 1.97,-1.70 2.18,-1.46 2.18,-1.46 L 2.18,-1.46 Z"></path></g><g transform="translate(155.66092711956617 99.62139492425115) rotate(0 4.8752192855927206 0)" stroke="none"><path d="M0 0 C0 0, 0 0, 0 0 M0 0 C0 0, 0 0, 0 0" stroke="#ffc9c9" stroke-width="0.5" fill="none"></path><path fill="#1e1e1e" d="M 0,-2.26 Q 0,-2.26 1.36,-2.29 2.72,-2.32 3.93,-2.36 5.15,-2.40 6.91,-2.49 8.67,-2.59 8.98,-2.55 9.29,-2.51 9.58,-2.40 9.87,-2.29 10.13,-2.11 10.39,-1.94 10.59,-1.70 10.80,-1.47 10.95,-1.19 11.09,-0.91 11.17,-0.61 11.24,-0.31 11.24,0.00 11.24,0.31 11.17,0.61 11.09,0.91 10.95,1.19 10.80,1.47 10.59,1.70 10.39,1.94 10.13,2.11 9.87,2.29 9.58,2.40 9.29,2.51 8.98,2.55 8.67,2.59 4.33,2.39 0,2.18 -0.34,2.13 -0.69,2.07 -1.01,1.90 -1.32,1.74 -1.56,1.48 -1.81,1.22 -1.96,0.90 -2.10,0.58 -2.14,0.23 -2.18,-0.11 -2.11,-0.46 -2.03,-0.81 -1.85,-1.11 -1.66,-1.41 -1.39,-1.64 -1.12,-1.87 -0.79,-2.00 -0.47,-2.13 -0.11,-2.15 0.23,-2.17 0.57,-2.08 0.91,-1.98 1.21,-1.78 1.50,-1.58 1.72,-1.30 1.93,-1.02 2.04,-0.68 2.16,-0.35 2.16,0.00 2.16,0.35 2.04,0.69 1.93,1.02 1.71,1.30 1.50,1.58 1.21,1.78 0.91,1.98 0.57,2.08 0.23,2.17 -0.11,2.15 -0.47,2.13 -0.80,2.00 -1.12,1.87 -1.39,1.64 -1.66,1.41 -1.85,1.11 -2.03,0.80 -2.11,0.46 -2.18,0.11 -2.14,-0.23 -2.10,-0.58 -1.96,-0.90 -1.81,-1.22 -1.56,-1.48 -1.32,-1.74 -1.01,-1.90 -0.69,-2.07 -0.34,-2.13 0.00,-2.18 0.00,-2.18 0,-2.18 4.33,-2.39 8.67,-2.59 8.98,-2.55 9.29,-2.51 9.58,-2.40 9.87,-2.29 10.13,-2.11 10.39,-1.94 10.59,-1.70 10.80,-1.47 10.95,-1.19 11.09,-0.91 11.17,-0.61 11.24,-0.31 11.24,-0.00 11.24,0.31 11.17,0.61 11.09,0.91 10.95,1.19 10.80,1.47 10.59,1.70 10.39,1.94 10.13,2.11 9.87,2.29 9.58,2.40 9.29,2.51 8.98,2.55 8.67,2.59 6.91,2.49 5.15,2.40 3.93,2.36 2.72,2.32 1.36,2.29 0,2.26 -0.27,2.23 -0.54,2.20 -0.79,2.10 -1.05,2.00 -1.27,1.85 -1.50,1.69 -1.68,1.49 -1.86,1.28 -1.99,1.04 -2.12,0.80 -2.18,0.53 -2.25,0.27 -2.25,-0.00 -2.25,-0.27 -2.18,-0.53 -2.12,-0.80 -1.99,-1.04 -1.86,-1.28 -1.68,-1.49 -1.50,-1.69 -1.27,-1.85 -1.05,-2.00 -0.79,-2.10 -0.54,-2.20 -0.27,-2.23 0.00,-2.26 0.00,-2.26 L 0,-2.26 Z"></path></g><g transform="translate(150.90108176313197 109.33426989059421) rotate(0 4.408357339696522 0)" stroke="none"><path d="M0 0 C0 0, 0 0, 0 0 M0 0 C0 0, 0 0, 0 0" stroke="#ffc9c9" stroke-width="0.5" fill="none"></path><path fill="#1e1e1e" d="M 0,-2.36 Q 0,-2.36 1.22,-2.39 2.44,-2.43 4.15,-2.52 5.87,-2.62 7.11,-2.72 8.35,-2.81 8.69,-2.77 9.03,-2.73 9.35,-2.61 9.66,-2.49 9.94,-2.30 10.22,-2.11 10.45,-1.85 10.67,-1.60 10.83,-1.30 10.99,-0.99 11.07,-0.66 11.15,-0.33 11.15,0.00 11.15,0.34 11.07,0.67 10.99,1.00 10.83,1.30 10.67,1.60 10.45,1.85 10.22,2.11 9.94,2.30 9.66,2.49 9.35,2.61 9.03,2.73 8.69,2.77 8.35,2.81 4.17,2.61 0,2.40 -0.38,2.33 -0.76,2.27 -1.11,2.09 -1.45,1.91 -1.72,1.62 -1.98,1.34 -2.15,0.99 -2.31,0.64 -2.35,0.25 -2.39,-0.13 -2.31,-0.50 -2.23,-0.88 -2.03,-1.22 -1.83,-1.55 -1.53,-1.80 -1.23,-2.05 -0.87,-2.20 -0.51,-2.34 -0.12,-2.36 0.25,-2.38 0.63,-2.28 1.00,-2.17 1.33,-1.96 1.65,-1.74 1.88,-1.43 2.12,-1.12 2.24,-0.75 2.36,-0.38 2.36,0.00 2.36,0.38 2.24,0.75 2.12,1.12 1.88,1.43 1.65,1.74 1.32,1.96 1.00,2.17 0.63,2.28 0.25,2.38 -0.12,2.36 -0.51,2.34 -0.87,2.20 -1.23,2.05 -1.53,1.80 -1.83,1.55 -2.03,1.22 -2.23,0.88 -2.31,0.50 -2.39,0.12 -2.35,-0.25 -2.31,-0.64 -2.15,-0.99 -1.98,-1.34 -1.71,-1.63 -1.45,-1.91 -1.10,-2.09 -0.76,-2.27 -0.38,-2.33 0.00,-2.40 0.00,-2.40 0,-2.40 4.17,-2.61 8.35,-2.81 8.69,-2.77 9.03,-2.73 9.35,-2.61 9.66,-2.49 9.94,-2.30 10.22,-2.11 10.45,-1.85 10.67,-1.60 10.83,-1.30 10.99,-1.00 11.07,-0.67 11.15,-0.34 11.15,-0.00 11.15,0.33 11.07,0.66 10.99,0.99 10.83,1.30 10.67,1.60 10.45,1.85 10.22,2.11 9.94,2.30 9.66,2.49 9.35,2.61 9.03,2.73 8.69,2.77 8.35,2.81 7.11,2.72 5.87,2.62 4.15,2.52 2.44,2.43 1.22,2.39 0,2.36 -0.28,2.32 -0.56,2.29 -0.83,2.19 -1.09,2.09 -1.33,1.92 -1.56,1.76 -1.75,1.55 -1.94,1.34 -2.07,1.08 -2.20,0.83 -2.27,0.56 -2.34,0.28 -2.34,-0.00 -2.34,-0.28 -2.27,-0.56 -2.20,-0.83 -2.07,-1.08 -1.94,-1.34 -1.75,-1.55 -1.56,-1.76 -1.33,-1.92 -1.09,-2.09 -0.83,-2.19 -0.56,-2.29 -0.28,-2.32 0.00,-2.36 0.00,-2.36 L 0,-2.36 Z"></path></g><g transform="translate(17.566383261073952 95.55379314276615) rotate(0 1.5588896009517157 0)" stroke="none"><path d="M0 0 C0 0, 0 0, 0 0 M0 0 C0 0, 0 0, 0 0" stroke="#ffc9c9" stroke-width="0.5" fill="none"></path><path fill="#1e1e1e" d="M 0,-2.34 Q 0,-2.34 0,-2.40 0,-2.45 0.29,-2.42 0.58,-2.38 0.86,-2.28 1.14,-2.17 1.38,-2.00 1.62,-1.83 1.82,-1.61 2.02,-1.39 2.15,-1.13 2.29,-0.87 2.36,-0.58 2.43,-0.29 2.43,0.00 2.43,0.29 2.36,0.58 2.29,0.87 2.15,1.13 2.02,1.39 1.82,1.61 1.62,1.83 1.38,2.00 1.14,2.17 0.86,2.28 0.58,2.38 0.29,2.42 -0.00,2.45 -0.39,2.39 -0.78,2.32 -1.13,2.14 -1.48,1.95 -1.76,1.66 -2.03,1.37 -2.20,1.01 -2.36,0.65 -2.41,0.26 -2.45,-0.13 -2.36,-0.52 -2.28,-0.90 -2.07,-1.25 -1.87,-1.59 -1.56,-1.84 -1.26,-2.10 -0.89,-2.25 -0.52,-2.39 -0.13,-2.42 0.26,-2.44 0.64,-2.33 1.03,-2.22 1.36,-2.00 1.68,-1.78 1.93,-1.46 2.17,-1.15 2.29,-0.77 2.42,-0.39 2.42,0.00 2.42,0.39 2.29,0.77 2.17,1.15 1.93,1.46 1.68,1.78 1.36,2.00 1.03,2.23 0.64,2.33 0.26,2.44 -0.13,2.42 -0.52,2.39 -0.89,2.25 -1.26,2.10 -1.57,1.84 -1.87,1.59 -2.07,1.24 -2.28,0.90 -2.36,0.52 -2.45,0.13 -2.41,-0.26 -2.36,-0.65 -2.20,-1.01 -2.03,-1.37 -1.75,-1.66 -1.48,-1.95 -1.13,-2.14 -0.78,-2.32 -0.39,-2.39 0.00,-2.45 0.00,-2.45 -0.00,-2.45 0.29,-2.42 0.58,-2.38 0.86,-2.28 1.14,-2.17 1.38,-2.00 1.62,-1.83 1.82,-1.61 2.02,-1.39 2.15,-1.13 2.29,-0.87 2.36,-0.58 2.43,-0.29 2.43,-0.00 2.43,0.29 2.36,0.58 2.29,0.87 2.15,1.13 2.02,1.39 1.82,1.61 1.62,1.83 1.38,2.00 1.14,2.17 0.86,2.28 0.58,2.38 0.29,2.42 0,2.45 0,2.40 0,2.34 -0.28,2.31 -0.56,2.27 -0.82,2.17 -1.09,2.07 -1.32,1.91 -1.55,1.75 -1.74,1.54 -1.93,1.33 -2.06,1.08 -2.19,0.83 -2.26,0.55 -2.32,0.28 -2.32,-0.00 -2.32,-0.28 -2.26,-0.55 -2.19,-0.83 -2.06,-1.08 -1.93,-1.33 -1.74,-1.54 -1.55,-1.75 -1.32,-1.91 -1.08,-2.07 -0.82,-2.17 -0.56,-2.27 -0.28,-2.31 0.00,-2.34 0.00,-2.34 L 0,-2.34 Z"></path></g><g transform="translate(20.684162462977383 95.55379314276615) rotate(0 0.07512720968452413 0)" stroke="none"><path fill="#1e1e1e" d="M 2.12,-0.66 Q 2.12,-0.66 2.15,-0.13 2.18,0.40 1.96,0.88 1.74,1.36 1.32,1.69 0.91,2.02 0.38,2.12 -0.13,2.21 -0.64,2.05 -1.14,1.90 -1.52,1.52 -1.90,1.14 -2.05,0.64 -2.21,0.13 -2.12,-0.38 -2.02,-0.91 -1.69,-1.32 -1.36,-1.74 -0.88,-1.96 -0.39,-2.18 0.13,-2.15 0.66,-2.11 1.11,-1.84 1.57,-1.56 1.84,-1.11 L 2.12,-0.66 Z"></path></g><g transform="translate(28.239813265524845 95.55379314276615) rotate(0 0.00005000000010113581 0.00004999999998744897)" stroke="none"><path fill="#1e1e1e" d="M 1.57,-1.57 Q 1.57,-1.57 1.77,-1.27 1.98,-0.98 2.09,-0.64 2.20,-0.29 2.19,0.05 2.18,0.41 2.05,0.75 1.93,1.09 1.70,1.37 1.48,1.65 1.18,1.84 0.87,2.04 0.52,2.12 0.18,2.21 -0.17,2.18 -0.53,2.15 -0.86,2.01 -1.19,1.87 -1.46,1.63 -1.73,1.39 -1.90,1.07 -2.08,0.76 -2.15,0.41 -2.21,0.05 -2.17,-0.29 -2.12,-0.65 -1.96,-0.97 -1.80,-1.29 -1.54,-1.54 -1.29,-1.80 -0.97,-1.96 -0.65,-2.12 -0.29,-2.17 0.06,-2.21 0.41,-2.15 0.76,-2.08 1.07,-1.90 1.39,-1.73 1.63,-1.46 1.87,-1.19 2.01,-0.86 2.15,-0.53 2.18,-0.17 2.21,0.18 2.12,0.52 2.03,0.87 1.84,1.18 1.65,1.48 1.37,1.70 1.09,1.93 0.75,2.05 0.41,2.18 0.05,2.19 -0.30,2.20 -0.64,2.09 -0.98,1.98 -1.27,1.77 -1.57,1.56 -1.57,1.57 -1.57,1.57 -1.73,1.35 -1.90,1.14 -2.01,0.90 -2.12,0.66 -2.16,0.39 -2.21,0.13 -2.20,-0.13 -2.18,-0.40 -2.10,-0.65 -2.02,-0.91 -1.88,-1.14 -1.74,-1.36 -1.55,-1.55 -1.36,-1.74 -1.14,-1.88 -0.91,-2.02 -0.65,-2.10 -0.40,-2.18 -0.13,-2.20 0.13,-2.21 0.39,-2.16 0.66,-2.12 0.90,-2.01 1.14,-1.90 1.35,-1.73 1.57,-1.57 1.57,-1.57 L 1.57,-1.57 Z"></path></g><g transform="translate(15.285735824225412 95.55379314276615) rotate(0 12.739428270772578 0)" stroke="none"><path fill="#1e1e1e" d="M 0,-2.28 Q 0,-2.28 2.94,-2.16 5.88,-2.03 8.25,-1.93 10.61,-1.84 12.65,-1.79 14.68,-1.74 16.24,-1.80 17.79,-1.85 18.96,-1.93 20.14,-2.01 22.81,-2.13 25.47,-2.25 25.83,-2.19 26.19,-2.13 26.52,-1.96 26.84,-1.79 27.09,-1.52 27.34,-1.26 27.49,-0.93 27.65,-0.60 27.68,-0.24 27.72,0.12 27.65,0.47 27.57,0.83 27.38,1.14 27.19,1.45 26.91,1.69 26.64,1.93 26.30,2.06 25.96,2.20 25.59,2.22 25.23,2.24 24.88,2.14 24.53,2.04 24.23,1.84 23.92,1.63 23.70,1.34 23.48,1.05 23.37,0.70 23.25,0.36 23.25,-0.00 23.25,-0.36 23.37,-0.71 23.48,-1.05 23.70,-1.34 23.92,-1.63 24.23,-1.84 24.53,-2.04 24.88,-2.14 25.23,-2.24 25.59,-2.22 25.96,-2.20 26.30,-2.06 26.64,-1.93 26.91,-1.69 27.19,-1.45 27.38,-1.14 27.57,-0.83 27.65,-0.47 27.72,-0.12 27.68,0.24 27.65,0.60 27.49,0.93 27.34,1.26 27.09,1.52 26.84,1.79 26.51,1.96 26.19,2.13 25.83,2.19 25.47,2.25 25.47,2.25 25.47,2.25 22.81,2.13 20.14,2.01 18.96,1.93 17.79,1.85 16.24,1.80 14.68,1.74 12.65,1.79 10.61,1.84 8.25,1.93 5.88,2.03 2.94,2.16 0,2.28 -0.27,2.25 -0.54,2.22 -0.80,2.12 -1.06,2.02 -1.29,1.87 -1.51,1.71 -1.70,1.50 -1.88,1.30 -2.01,1.05 -2.14,0.81 -2.20,0.54 -2.27,0.27 -2.27,-0.00 -2.27,-0.27 -2.20,-0.54 -2.14,-0.81 -2.01,-1.05 -1.88,-1.30 -1.70,-1.50 -1.51,-1.71 -1.29,-1.87 -1.06,-2.02 -0.80,-2.12 -0.54,-2.22 -0.27,-2.25 0.00,-2.28 0.00,-2.28 L 0,-2.28 Z"></path></g><g transform="translate(22.632103685509264 107.47755456553637) rotate(0 7.453692446547166 0)" stroke="none"><path fill="#1e1e1e" d="M 0,-2.47 Q 0,-2.47 1.77,-2.41 3.54,-2.35 5.10,-2.34 6.66,-2.33 7.98,-2.36 9.30,-2.38 12.10,-2.46 14.90,-2.53 15.31,-2.47 15.71,-2.40 16.08,-2.21 16.44,-2.02 16.72,-1.72 17.00,-1.42 17.18,-1.05 17.35,-0.67 17.39,-0.27 17.44,0.13 17.35,0.53 17.26,0.93 17.05,1.29 16.84,1.64 16.52,1.90 16.21,2.17 15.83,2.32 15.45,2.47 15.04,2.50 14.63,2.52 14.23,2.41 13.84,2.30 13.50,2.07 13.16,1.84 12.91,1.51 12.66,1.18 12.53,0.79 12.40,0.41 12.40,-0.00 12.40,-0.41 12.53,-0.79 12.66,-1.18 12.91,-1.51 13.16,-1.84 13.50,-2.07 13.84,-2.30 14.23,-2.41 14.63,-2.52 15.04,-2.50 15.45,-2.47 15.83,-2.32 16.21,-2.17 16.52,-1.90 16.84,-1.64 17.05,-1.29 17.26,-0.93 17.35,-0.53 17.44,-0.13 17.39,0.27 17.35,0.67 17.17,1.05 17.00,1.42 16.72,1.72 16.44,2.02 16.07,2.21 15.71,2.40 15.31,2.47 14.90,2.53 14.90,2.53 14.90,2.53 12.10,2.46 9.30,2.38 7.98,2.36 6.66,2.33 5.10,2.34 3.54,2.35 1.77,2.41 0,2.47 -0.29,2.43 -0.59,2.39 -0.86,2.29 -1.14,2.18 -1.39,2.01 -1.63,1.84 -1.83,1.62 -2.03,1.40 -2.17,1.13 -2.31,0.87 -2.38,0.58 -2.45,0.29 -2.45,-0.00 -2.45,-0.29 -2.38,-0.58 -2.31,-0.87 -2.17,-1.13 -2.03,-1.40 -1.83,-1.62 -1.63,-1.84 -1.39,-2.01 -1.14,-2.18 -0.86,-2.29 -0.59,-2.39 -0.29,-2.43 0.00,-2.47 0.00,-2.47 L 0,-2.47 Z"></path></g><g transform="translate(148.2984605704928 116.33719907903492) rotate(0 7.453692446547393 3.082898711692792)" stroke="none"><path fill="#1e1e1e" d="M 0.77,-2.49 Q 0.77,-2.49 1.57,-2.28 2.37,-2.08 3.45,-1.80 4.53,-1.52 5.70,-1.01 6.87,-0.50 8.20,0.08 9.53,0.66 10.78,1.19 12.02,1.71 14.28,2.57 16.55,3.42 16.94,3.75 17.34,4.09 17.60,4.53 17.87,4.97 17.98,5.48 18.09,5.98 18.04,6.50 17.98,7.01 17.77,7.48 17.55,7.95 17.19,8.33 16.84,8.70 16.38,8.95 15.93,9.19 15.42,9.27 14.91,9.36 14.40,9.27 13.89,9.19 13.43,8.95 12.97,8.71 12.62,8.33 12.26,7.96 12.04,7.49 11.82,7.02 11.77,6.50 11.71,5.99 11.82,5.49 11.93,4.98 12.20,4.54 12.46,4.09 12.86,3.76 13.25,3.42 13.73,3.23 14.21,3.04 14.73,3.01 15.24,2.98 15.74,3.12 16.24,3.26 16.67,3.55 17.10,3.84 17.41,4.25 17.72,4.66 17.89,5.15 18.06,5.64 18.06,6.16 18.06,6.68 17.89,7.17 17.73,7.66 17.41,8.07 17.10,8.48 16.67,8.77 16.25,9.06 15.75,9.20 15.25,9.34 14.73,9.31 14.22,9.28 13.74,9.09 13.26,8.90 13.26,8.90 13.26,8.90 11.81,8.41 10.37,7.91 9.33,7.41 8.29,6.90 6.89,6.20 5.49,5.50 4.34,4.90 3.18,4.29 1.97,3.67 0.76,3.06 -0.00,2.77 -0.77,2.49 -1.06,2.36 -1.35,2.23 -1.60,2.04 -1.84,1.84 -2.04,1.59 -2.23,1.35 -2.36,1.06 -2.49,0.77 -2.55,0.46 -2.60,0.15 -2.59,-0.15 -2.57,-0.47 -2.47,-0.77 -2.38,-1.07 -2.21,-1.34 -2.05,-1.61 -1.83,-1.83 -1.61,-2.05 -1.34,-2.22 -1.07,-2.38 -0.77,-2.47 -0.46,-2.57 -0.15,-2.59 0.15,-2.60 0.46,-2.55 0.77,-2.49 0.77,-2.49 L 0.77,-2.49 Z"></path></g><g transform="translate(40.286997961348334 114.96344438766255) rotate(0 -3.933446049905797 3.3216959139040796)" stroke="none"><path d="M-3.13 2.58 C-3.13 2.58, -3.13 2.58, -3.13 2.58 M-3.13 2.58 C-3.13 2.58, -3.13 2.58, -3.13 2.58" stroke="#ffc9c9" stroke-width="0.5" fill="none"></path><path fill="#1e1e1e" d="M 1.83,1.86 Q 1.83,1.86 1.12,2.60 0.42,3.33 -0.55,4.49 -1.53,5.66 -2.59,6.64 -3.66,7.62 -4.72,8.34 -5.78,9.07 -6.13,9.23 -6.47,9.39 -6.85,9.47 -7.22,9.55 -7.60,9.53 -7.99,9.52 -8.35,9.41 -8.72,9.30 -9.05,9.11 -9.38,8.92 -9.66,8.65 -9.94,8.39 -10.14,8.06 -10.34,7.74 -10.47,7.38 -10.59,7.02 -10.62,6.63 -10.65,6.25 -10.59,5.87 -10.52,5.50 -10.37,5.15 -10.22,4.79 -9.99,4.49 -9.76,4.18 -9.47,3.94 -9.17,3.70 -5.46,0.82 -1.75,-2.05 -1.38,-2.28 -1.00,-2.50 -0.58,-2.60 -0.15,-2.69 0.28,-2.65 0.71,-2.60 1.11,-2.42 1.51,-2.24 1.82,-1.94 2.14,-1.64 2.35,-1.25 2.55,-0.86 2.63,-0.43 2.70,-0.00 2.63,0.42 2.56,0.85 2.36,1.24 2.15,1.63 1.83,1.93 1.52,2.23 1.12,2.41 0.72,2.60 0.29,2.65 -0.13,2.69 -0.56,2.60 -0.99,2.51 -1.36,2.28 -1.74,2.06 -2.02,1.73 -2.31,1.39 -2.47,0.99 -2.63,0.58 -2.66,0.15 -2.68,-0.28 -2.57,-0.70 -2.45,-1.12 -2.21,-1.49 -1.96,-1.85 -1.61,-2.12 -1.27,-2.38 -0.85,-2.52 -0.44,-2.66 -0.00,-2.66 0.43,-2.66 0.84,-2.53 1.26,-2.39 1.60,-2.12 1.95,-1.86 2.20,-1.50 2.45,-1.14 2.56,-0.71 2.68,-0.29 2.66,0.13 2.64,0.57 2.48,0.98 2.31,1.38 2.03,1.72 1.75,2.05 1.75,2.05 1.75,2.05 -2.01,5.56 -5.78,9.07 -6.13,9.23 -6.47,9.39 -6.85,9.47 -7.22,9.55 -7.60,9.53 -7.99,9.52 -8.35,9.41 -8.72,9.30 -9.05,9.11 -9.38,8.92 -9.66,8.65 -9.94,8.39 -10.14,8.07 -10.34,7.74 -10.46,7.38 -10.59,7.02 -10.62,6.63 -10.65,6.25 -10.59,5.88 -10.52,5.50 -10.37,5.15 -10.22,4.79 -9.99,4.49 -9.76,4.18 -9.47,3.94 -9.17,3.70 -7.94,3.10 -6.71,2.51 -5.88,1.83 -5.06,1.14 -4.19,0.32 -3.32,-0.49 -2.57,-1.18 -1.83,-1.86 -1.57,-2.06 -1.32,-2.25 -1.04,-2.37 -0.75,-2.50 -0.44,-2.55 -0.12,-2.61 0.18,-2.59 0.49,-2.56 0.79,-2.47 1.09,-2.37 1.36,-2.20 1.63,-2.04 1.85,-1.81 2.07,-1.59 2.23,-1.31 2.39,-1.04 2.48,-0.74 2.57,-0.44 2.59,-0.12 2.60,0.18 2.54,0.49 2.48,0.80 2.35,1.09 2.22,1.37 2.02,1.62 1.82,1.87 1.82,1.87 L 1.83,1.86 Z"></path></g></svg>